<svg width="40" height="40" fill="none" xmlns="http://www.w3.org/2000/svg"><svg viewBox="0 0 32 32" xmlns="http://www.w3.org/2000/svg"><circle cx="16" cy="16" r="16" fill="#EFF2F5"/><path d="M21.885 10.668c-1.269.074-3.79.344-5.347 1.324a.369.369 0 0 0-.168.313v8.664c0 .275.292.448.539.32 1.601-.828 3.917-1.054 5.062-1.116a.733.733 0 0 0 .695-.73v-8.044a.734.734 0 0 0-.781-.731zm-6.424 1.324c-1.556-.98-4.077-1.25-5.346-1.324a.734.734 0 0 0-.782.731v8.044c0 .387.304.709.695.73 1.146.062 3.463.288 5.064 1.118a.365.365 0 0 0 .537-.32V12.3a.36.36 0 0 0-.168-.31z" fill="#808A9D"/></svg></svg>