<svg width="40" height="40" fill="none" xmlns="http://www.w3.org/2000/svg"><svg viewBox="0 0 32 32" xmlns="http://www.w3.org/2000/svg"><circle cx="16" cy="16" r="16" fill="#EFF2F5"/><path d="M13.88 21.165c0 .164.05.324.142.46l.454.67a.843.843 0 0 0 .706.372h1.636a.861.861 0 0 0 .706-.372l.454-.67a.822.822 0 0 0 .142-.46v-.999H13.88l.001 1zm-2.547-7.248a4.51 4.51 0 0 0 1.155 3.015c.438.49 1.123 1.516 1.385 2.381 0 .007.002.014.003.02h4.248l.003-.02c.261-.865.947-1.89 1.385-2.381a4.511 4.511 0 0 0 1.155-3.015c0-2.537-2.098-4.592-4.682-4.584-2.704.008-4.652 2.16-4.652 4.583zM16 11.832c-1.17 0-2.121.935-2.121 2.083a.42.42 0 0 1-.425.417.42.42 0 0 1-.424-.417C13.03 12.308 14.362 11 16 11a.42.42 0 0 1 .424.417.42.42 0 0 1-.424.416z" fill="#808A9D"/></svg></svg>