<svg width="40" height="40" fill="none" xmlns="http://www.w3.org/2000/svg"><svg viewBox="0 0 32 32" xmlns="http://www.w3.org/2000/svg"><circle cx="16" cy="16" r="16" fill="#EFF2F5"/><path d="M22.414 14.415c.101-.075.253-.005.253.114v4.97c0 .645-.56 1.168-1.25 1.168H10.583c-.69 0-1.25-.523-1.25-1.167v-4.968c0-.122.149-.19.253-.114.583.423 1.357.96 4.013 2.76.55.375 1.476 1.162 2.4 1.158.93.007 1.876-.797 2.405-1.157 2.656-1.801 3.427-2.34 4.01-2.764zM16 17.555c.604.01 1.474-.71 1.911-1.006 3.456-2.34 3.72-2.545 4.516-3.128.151-.11.24-.28.24-.46V12.5c0-.644-.56-1.167-1.25-1.167H10.583c-.69 0-1.25.523-1.25 1.167v.462c0 .18.089.347.24.46.797.58 1.06.787 4.515 3.127.438.297 1.308 1.016 1.912 1.006z" fill="#808A9D"/></svg></svg>