<svg width="40" height="40" fill="none" xmlns="http://www.w3.org/2000/svg"><svg width="40" height="40" viewBox="0 0 32 32" xmlns="http://www.w3.org/2000/svg"><circle cx="16" cy="16" r="16" fill="#16C784"/><path d="m17.886 15.638-3.23-.865c-.44-.117-.795-.447-.864-.872-.109-.661.438-1.234 1.125-1.234h2.05c.441 0 .875.13 1.233.367a.465.465 0 0 0 .57-.044l.636-.597a.404.404 0 0 0-.042-.627A4.066 4.066 0 0 0 16.967 11h-.078V9.75c0-.23-.2-.417-.445-.417h-.888c-.245 0-.445.188-.445.417V11h-.07c-1.366 0-2.627.828-2.955 2.073-.386 1.463.561 2.896 2.028 3.289l3.23.865c.44.117.795.447.864.872.109.661-.439 1.234-1.125 1.234h-2.05c-.441 0-.875-.13-1.233-.367a.465.465 0 0 0-.57.044l-.636.597a.404.404 0 0 0 .042.627 4.054 4.054 0 0 0 2.397.766h.078v1.25c0 .23.2.417.444.417h.89c.244 0 .444-.188.444-.417V21h.07c1.366 0 2.627-.828 2.955-2.073.386-1.463-.561-2.896-2.028-3.289z" fill="#fff"/></svg></svg>